<?xml version="1.0" encoding="utf-8" ?><svg xmlns="http://www.w3.org/2000/svg" xmlns:xlink="http://www.w3.org/1999/xlink" width="232" height="307" viewBox="0 0 232 307"><defs><linearGradient id="gradient_0" gradientUnits="userSpaceOnUse" x1="15.766886" y1="156.51453" x2="210.8293" y2="150.95367"><stop offset="0" stop-color="#79231A"/><stop offset="1" stop-color="#B53620"/></linearGradient></defs><path fill="url(#gradient_0)" d="M114.457 22.1305C114.515 22.1613 114.574 22.1901 114.63 22.2228C116.015 23.0242 118.443 27.7275 119.433 29.3731C123.63 36.315 128.138 43.0642 132.944 49.6C143.393 63.9595 154.457 77.7588 165.566 91.6077C175.403 103.87 185.552 116.24 193.827 129.63C201.002 141.242 207.154 153.523 210.089 166.936C215.56 191.665 210.979 217.554 197.354 238.904C184.285 259.254 160.741 276.476 136.993 281.617C133.233 282.43 117.469 285.806 114.376 283.811C114.082 283.989 113.743 284.155 113.404 284.219C110.47 284.774 106.867 284.144 103.928 283.821C88.7266 282.15 74.5628 277.284 61.7373 268.872C39.0435 253.959 23.2564 230.589 17.8928 203.969C9.50413 163.537 31.6322 131.703 55.5023 101.64L78.9058 72.2084C85.953 63.3452 92.7486 54.2848 99.2844 45.0381C104.515 37.5324 109.431 29.776 114.457 22.1305Z"/><path fill="#EFEFEE" d="M132.874 148.864L149.29 148.768C155.253 148.738 161.275 148.375 167.123 149.789C172.542 151.099 177.42 153.879 180.352 158.753C182.927 163.034 183.666 168.749 182.456 173.58C181.241 178.433 177.953 181.951 173.748 184.473C173.916 184.565 174.082 184.662 174.245 184.763C179.149 187.838 183.136 191.962 184.483 197.741C185.716 203.033 184.565 208.712 181.725 213.298C181.011 214.322 180.272 215.276 179.385 216.159C176.692 218.843 173.36 220.646 169.709 221.655C162.72 223.585 154.996 223.051 147.813 223.028L129.904 223.035C129.438 214.117 129.778 205.044 129.784 196.112L129.757 148.992L132.874 148.864Z"/><path fill="#A42F1E" d="M147.977 191.133C152.583 190.963 157.94 190.636 162.382 191.964C164.815 192.692 167.028 194.023 168.247 196.335C169.436 198.591 169.642 201.696 168.843 204.123C168.045 206.547 166.451 207.979 164.251 209.093C157.989 211.077 151.478 210.197 145.041 210.447C144.834 204.022 144.534 197.59 145.054 191.174L147.977 191.133Z"/><path fill="#A42F1E" d="M144.996 161.063C150.894 160.891 160.879 159.689 165.555 164.078C167.14 165.566 167.949 167.681 167.996 169.836C168.052 172.453 166.836 174.543 165.067 176.356C159.934 180.201 151.159 179.097 145.042 178.998C144.95 173.02 144.935 167.042 144.996 161.063Z"/><path fill="#EFEFEE" d="M105.947 148.864C111.06 148.742 116.176 148.79 121.286 149.009C121.287 173.318 120.817 197.723 121.519 222.02C116.528 221.812 111.509 221.996 106.52 222.187L106.449 192.578C106.446 186.301 106.325 180.004 106.542 173.731C103.096 178.793 100.967 184.759 98.3117 190.25C94.7578 197.601 90.6989 204.872 87.7286 212.477C85.684 212.407 83.6302 212.448 81.5843 212.452C79.7518 207.404 77.0949 202.559 74.7347 197.737C71.0252 190.158 67.337 182.502 64.0455 174.733C63.7811 175.879 63.7178 177.102 63.5912 178.271C62.9083 192.792 63.3921 207.481 63.495 222.012C58.5176 221.976 53.54 222.029 48.5645 222.17C48.261 197.792 48.5056 173.38 48.4841 148.999C54.2807 148.924 60.0838 148.972 65.8811 148.967C68.8047 154.683 71.2885 160.587 73.8939 166.452C77.4363 174.451 81.0367 182.425 84.6949 190.372C88.3349 181.979 92.4537 173.768 96.3092 165.471C98.8053 160.099 101.011 154.544 103.603 149.23C104.211 148.813 105.22 148.894 105.947 148.864Z"/></svg>